<svg width="22" height="22" viewBox="0 0 22 22" fill="none" xmlns="http://www.w3.org/2000/svg">
<g clip-path="url(#clip0_328_99)">
<path d="M6.53111 21.38C4.72611 20.035 3.55811 17.886 3.55811 15.463C3.55811 13.042 4.72511 10.894 6.52711 9.548" fill="#9B3B7B"/>
<path d="M15.3451 21.376H6.5271V9.549H15.3451V21.376Z" fill="#9B3B7B"/>
<path d="M11.012 12.426C14.0562 12.426 16.524 9.95819 16.524 6.91399C16.524 3.8698 14.0562 1.40199 11.012 1.40199C7.96781 1.40199 5.5 3.8698 5.5 6.91399C5.5 9.95819 7.96781 12.426 11.012 12.426Z" stroke="#9B3B7B" stroke-width="2" stroke-miterlimit="10"/>
<path d="M15.345 21.378C17.151 20.033 18.319 17.884 18.318 15.461C18.318 13.04 17.151 10.892 15.35 9.54601" fill="#9B3B7B"/>
<path d="M8.47159 11.2727V20H7.41477V12.3807H7.36364L5.23295 13.7955V12.7216L7.41477 11.2727H8.47159ZM13.8281 20.1193C13.1861 20.1193 12.6392 19.9446 12.1875 19.5952C11.7358 19.2429 11.3906 18.733 11.152 18.0653C10.9134 17.3949 10.794 16.5852 10.794 15.6364C10.794 14.6932 10.9134 13.8878 11.152 13.2202C11.3935 12.5497 11.7401 12.0384 12.1918 11.6861C12.6463 11.331 13.1918 11.1534 13.8281 11.1534C14.4645 11.1534 15.0085 11.331 15.4602 11.6861C15.9148 12.0384 16.2614 12.5497 16.5 13.2202C16.7415 13.8878 16.8622 14.6932 16.8622 15.6364C16.8622 16.5852 16.7429 17.3949 16.5043 18.0653C16.2656 18.733 15.9205 19.2429 15.4688 19.5952C15.017 19.9446 14.4702 20.1193 13.8281 20.1193ZM13.8281 19.1818C14.4645 19.1818 14.9588 18.875 15.3111 18.2614C15.6634 17.6477 15.8395 16.7727 15.8395 15.6364C15.8395 14.8807 15.7585 14.2372 15.5966 13.706C15.4375 13.1747 15.2074 12.7699 14.9062 12.4915C14.608 12.2131 14.2486 12.0739 13.8281 12.0739C13.1974 12.0739 12.7045 12.3849 12.3494 13.0071C11.9943 13.6264 11.8168 14.5028 11.8168 15.6364C11.8168 16.392 11.8963 17.0341 12.0554 17.5625C12.2145 18.0909 12.4432 18.4929 12.7415 18.7685C13.0426 19.044 13.4048 19.1818 13.8281 19.1818Z" fill="white"/>
</g>
<defs>
<clipPath id="clip0_328_99">
<rect width="21.875" height="21.875" fill="white"/>
</clipPath>
</defs>
</svg>
