<svg width="22" height="22" viewBox="0 0 22 22" fill="none" xmlns="http://www.w3.org/2000/svg">
<g clip-path="url(#clip0_328_54)">
<path d="M6.53111 21.38C4.72611 20.035 3.55811 17.886 3.55811 15.463C3.55811 13.042 4.72511 10.894 6.52711 9.548" fill="#9B3B7B"/>
<path d="M15.3451 21.376H6.5271V9.549H15.3451V21.376Z" fill="#9B3B7B"/>
<path d="M11.012 12.426C14.0562 12.426 16.524 9.95819 16.524 6.91399C16.524 3.8698 14.0562 1.40199 11.012 1.40199C7.96781 1.40199 5.5 3.8698 5.5 6.91399C5.5 9.95819 7.96781 12.426 11.012 12.426Z" stroke="#9B3B7B" stroke-width="2" stroke-miterlimit="10"/>
<path d="M15.345 21.378C17.151 20.033 18.319 17.884 18.318 15.461C18.318 13.04 17.151 10.892 15.35 9.54601" fill="#9B3B7B"/>
<path d="M7.90341 20V19.233L10.7841 16.0795C11.1222 15.7102 11.4006 15.3892 11.6193 15.1165C11.8381 14.8409 12 14.5824 12.1051 14.3409C12.2131 14.0966 12.267 13.8409 12.267 13.5739C12.267 13.267 12.1932 13.0014 12.0455 12.777C11.9006 12.5526 11.7017 12.3793 11.4489 12.2571C11.196 12.1349 10.9119 12.0739 10.5966 12.0739C10.2614 12.0739 9.96875 12.1435 9.71875 12.2827C9.47159 12.419 9.27983 12.6108 9.14347 12.858C9.00994 13.1051 8.94318 13.3949 8.94318 13.7273H7.9375C7.9375 13.2159 8.0554 12.767 8.29119 12.3807C8.52699 11.9943 8.84801 11.6932 9.25426 11.4773C9.66335 11.2614 10.1222 11.1534 10.6307 11.1534C11.142 11.1534 11.5952 11.2614 11.9901 11.4773C12.3849 11.6932 12.6946 11.9844 12.919 12.3509C13.1435 12.7173 13.2557 13.125 13.2557 13.5739C13.2557 13.8949 13.1974 14.2088 13.081 14.5156C12.9673 14.8196 12.7685 15.1591 12.4844 15.5341C12.2031 15.9062 11.8125 16.3608 11.3125 16.8977L9.35227 18.9943V19.0625H13.4091V20H7.90341Z" fill="white"/>
</g>
<defs>
<clipPath id="clip0_328_54">
<rect width="21.875" height="21.875" fill="white"/>
</clipPath>
</defs>
</svg>
