<svg width="22" height="22" viewBox="0 0 22 22" fill="none" xmlns="http://www.w3.org/2000/svg">
<g clip-path="url(#clip0_328_77)">
<path d="M6.53111 21.38C4.72611 20.035 3.55811 17.886 3.55811 15.463C3.55811 13.042 4.72511 10.894 6.52711 9.548" fill="#9B3B7B"/>
<path d="M15.3451 21.376H6.5271V9.549H15.3451V21.376Z" fill="#9B3B7B"/>
<path d="M11.012 12.426C14.0562 12.426 16.524 9.95819 16.524 6.91399C16.524 3.8698 14.0562 1.40199 11.012 1.40199C7.96781 1.40199 5.5 3.8698 5.5 6.91399C5.5 9.95819 7.96781 12.426 11.012 12.426Z" stroke="#9B3B7B" stroke-width="2" stroke-miterlimit="10"/>
<path d="M15.345 21.378C17.151 20.033 18.319 17.884 18.318 15.461C18.318 13.04 17.151 10.892 15.35 9.54601" fill="#9B3B7B"/>
<path d="M10.6307 20.1193C10.1307 20.1193 9.6804 20.0199 9.27983 19.821C8.87926 19.6222 8.55824 19.3494 8.31676 19.0028C8.07528 18.6562 7.94318 18.2614 7.92045 17.8182H8.94318C8.98295 18.2131 9.16193 18.5398 9.48011 18.7983C9.80114 19.054 10.1847 19.1818 10.6307 19.1818C10.9886 19.1818 11.3068 19.098 11.5852 18.9304C11.8665 18.7628 12.0866 18.5327 12.2457 18.2401C12.4077 17.9446 12.4886 17.6108 12.4886 17.2386C12.4886 16.858 12.4048 16.5185 12.2372 16.2202C12.0724 15.919 11.8452 15.6818 11.5554 15.5085C11.2656 15.3352 10.9347 15.2472 10.5625 15.2443C10.2955 15.2415 10.0213 15.2827 9.74006 15.3679C9.45881 15.4503 9.22727 15.5568 9.04545 15.6875L8.05682 15.5682L8.58523 11.2727H13.1193V12.2102H9.47159L9.16477 14.7841H9.21591C9.39489 14.642 9.61932 14.5241 9.8892 14.4304C10.1591 14.3366 10.4403 14.2898 10.733 14.2898C11.267 14.2898 11.7429 14.4176 12.1605 14.6733C12.581 14.9261 12.9105 15.2727 13.1491 15.7131C13.3906 16.1534 13.5114 16.6562 13.5114 17.2216C13.5114 17.7784 13.3864 18.2756 13.1364 18.7131C12.8892 19.1477 12.5483 19.4915 12.1136 19.7443C11.679 19.9943 11.1847 20.1193 10.6307 20.1193Z" fill="white"/>
</g>
<defs>
<clipPath id="clip0_328_77">
<rect width="21.875" height="21.875" fill="white"/>
</clipPath>
</defs>
</svg>
